<svg width="14" height="12" viewBox="0 0 13 12" fill="none" xmlns="http://www.w3.org/2000/svg">
<path fill-rule="evenodd" clip-rule="evenodd" d="M6.07967 1.13691C6.20465 1.26194 6.27486 1.43148 6.27486 1.60827C6.27486 1.78505 6.20465 1.9546 6.07967 2.07963L2.551 5.60847H11.6083C11.7851 5.60847 11.9547 5.67871 12.0797 5.80374C12.2048 5.92877 12.275 6.09835 12.275 6.27517C12.275 6.45199 12.2048 6.62156 12.0797 6.74659C11.9547 6.87162 11.7851 6.94187 11.6083 6.94187H2.551L6.07967 10.4707C6.20111 10.5964 6.26831 10.7649 6.26679 10.9397C6.26527 11.1145 6.19515 11.2817 6.07155 11.4053C5.94794 11.5289 5.78074 11.599 5.60594 11.6005C5.43114 11.6021 5.26274 11.5349 5.137 11.4134L0.470337 6.74652C0.345357 6.6215 0.275146 6.45195 0.275146 6.27517C0.275146 6.09838 0.345357 5.92883 0.470337 5.80381L5.137 1.13691C5.26202 1.01193 5.43156 0.941711 5.60834 0.941711C5.78511 0.941711 5.95465 1.01193 6.07967 1.13691Z" fill="#9F0023"/>
</svg>
