<svg width="18" height="18" viewBox="0 0 16 16" fill="none" xmlns="http://www.w3.org/2000/svg">
<g clip-path="url(#clip0_916_14)">
<circle cx="8" cy="8" r="8" fill="#ffffff"/>
<path d="M9.7692 12.659L9.30954 12.7903C8.40502 13.1979 7.39766 13.3205 6.42118 13.1416C6.24039 13.1179 6.07253 13.0348 5.94396 12.9053C5.85367 12.7975 5.7906 12.6696 5.76009 12.5323C5.72957 12.3951 5.7325 12.2526 5.76864 12.1168C5.81006 11.9258 5.91978 11.7566 6.07718 11.6411C6.23457 11.5255 6.42879 11.4715 6.62334 11.4892C6.87834 11.4883 7.1218 11.5305 7.37681 11.5296C7.93029 11.5016 8.47348 11.3699 8.97815 11.1413C9.74144 10.8229 10.405 10.3051 10.8995 9.642C11.0617 9.40693 11.2031 9.1581 11.322 8.89834C11.4259 8.66182 11.6003 8.46326 11.8213 8.32975C11.958 8.25382 12.1139 8.21961 12.2699 8.23134C12.4259 8.24307 12.5751 8.30023 12.6991 8.39576C12.7871 8.44724 12.864 8.51566 12.9254 8.59706C12.9868 8.67847 13.0314 8.77123 13.0567 8.86998C13.082 8.96872 13.0875 9.07149 13.0729 9.17233C13.0582 9.27316 13.0237 9.37006 12.9713 9.4574C12.8058 9.93982 12.56 10.3907 12.2444 10.7911C11.9301 11.1724 11.5739 11.517 11.1825 11.8186L10.9087 11.9767L11.0489 12.0298L14.3909 12.9279C14.5581 12.9625 14.7097 13.0504 14.823 13.1782C14.9363 13.3061 15.0053 13.4672 15.0196 13.6375C15.0412 13.8084 15.0132 13.982 14.9388 14.1373C14.8645 14.2926 14.747 14.4231 14.6003 14.5133C14.5142 14.5621 14.419 14.5929 14.3206 14.6036C14.2222 14.6143 14.1225 14.6048 14.0278 14.5757L11.6236 13.9528L11.3576 13.8504C11.2803 13.8219 11.2438 13.843 11.2207 13.9294L10.8627 15.2696C10.7395 15.7308 10.6254 16.1866 10.4513 16.665C10.3971 16.8541 10.2717 17.0148 10.1015 17.1131C9.93122 17.2114 9.7294 17.2396 9.53854 17.192C9.34145 17.1539 9.16247 17.0515 9.02965 16.9008C8.94981 16.8097 8.89356 16.7004 8.86582 16.5825C8.83808 16.4646 8.83972 16.3418 8.87059 16.2248L9.35184 14.4234L9.74896 12.7926L9.7692 12.659Z" fill="#373334"/>
<path d="M5.52697 4.00545C6.1178 3.66194 6.79757 3.50212 7.47988 3.54628C8.16219 3.59044 8.81623 3.83659 9.35887 4.25345C9.90152 4.67031 10.3083 5.23906 10.5274 5.88741C10.7466 6.53575 10.7683 7.23443 10.5897 7.89463C10.4112 8.55483 10.0404 9.14676 9.52462 9.59517C9.00882 10.0436 8.37125 10.3282 7.69294 10.413C7.01463 10.4977 6.32621 10.3786 5.71518 10.071C5.10414 9.76328 4.59808 9.28087 4.26131 8.68503C3.81167 7.89509 3.69239 6.9596 3.92953 6.08283C4.16666 5.20606 4.74095 4.45924 5.52697 4.00545ZM5.7635 7.82993C5.92879 8.12443 6.17746 8.36347 6.47816 8.51689C6.77885 8.67031 7.1181 8.73124 7.45311 8.69201C7.78813 8.65277 8.1039 8.51512 8.36061 8.29641C8.61732 8.07771 8.80347 7.78774 8.89558 7.46309C8.98769 7.13844 8.98163 6.79364 8.87818 6.47218C8.77472 6.15072 8.5785 5.867 8.31426 5.6568C8.05001 5.44659 7.72959 5.31932 7.39339 5.29104C7.05719 5.26276 6.72027 5.33473 6.42514 5.49788C6.2281 5.6068 6.05458 5.75367 5.91456 5.93004C5.77455 6.10641 5.67081 6.30879 5.60932 6.52553C5.54782 6.74228 5.52979 6.96911 5.55625 7.19298C5.58271 7.41684 5.65314 7.63331 5.7635 7.82993Z" fill="#373334"/>
</g>
<defs>
<clipPath id="clip0_916_14">
<rect width="16" height="16" fill="#373334"/>
</clipPath>
</defs>
</svg>
