<svg width="18" height="18" viewBox="0 0 19 11" fill="none" xmlns="http://www.w3.org/2000/svg">
<path d="M10.6961 2.78914C10.6961 3.24463 10.6777 3.67395 10.6751 4.09803C10.6694 4.32934 10.6968 4.56028 10.7565 4.78388C10.7927 4.92661 10.8737 5.05409 10.9877 5.14775C11.0159 5.16981 11.0489 5.18488 11.0841 5.19171C11.1192 5.19853 11.1555 5.19693 11.19 5.18702C11.3127 5.14796 11.425 5.08174 11.5184 4.9933C11.743 4.78701 11.9455 4.55803 12.1226 4.31007C12.7508 3.44347 13.2688 2.50263 13.6647 1.50905C13.7357 1.34152 13.804 1.1766 13.8696 1.00644C13.9166 0.876393 14.0102 0.768241 14.1324 0.70278C14.2088 0.674728 14.29 0.661403 14.3714 0.663513C14.4082 0.663513 14.4476 0.663513 14.487 0.663513H17.1141C17.2928 0.663513 17.4714 0.663513 17.6396 0.663513C17.7299 0.67511 17.8183 0.698888 17.9023 0.734193C17.9704 0.754002 18.0299 0.795945 18.0713 0.853345C18.1127 0.910745 18.1337 0.980302 18.1308 1.05094C18.1308 1.23066 18.0951 1.4086 18.0258 1.5745C17.8496 1.99947 17.6276 2.40411 17.3637 2.78129C16.8724 3.52997 16.3129 4.22891 15.7874 4.94357C15.6114 5.18178 15.4459 5.42785 15.2883 5.67654C15.195 5.81417 15.1523 5.97971 15.1674 6.14512C15.1899 6.30534 15.2636 6.45407 15.3776 6.5692C15.5694 6.77339 15.7638 6.97495 15.9687 7.16605C16.5177 7.65436 17.0329 8.17911 17.5108 8.73671C17.7336 9.00143 17.9258 9.29033 18.0836 9.59796C18.1223 9.68099 18.1489 9.76916 18.1624 9.85974C18.1861 9.9599 18.1767 10.065 18.1355 10.1594C18.0943 10.2538 18.0235 10.3323 17.9338 10.3833C17.7582 10.4938 17.5556 10.5545 17.348 10.5587C16.573 10.5796 15.798 10.5744 15.0256 10.6189C14.5288 10.643 14.0417 10.4762 13.6647 10.1529C13.38 9.91973 13.1163 9.66221 12.8766 9.3833C12.6139 9.09797 12.3696 8.81001 12.0885 8.53776C11.969 8.42091 11.8337 8.32134 11.6865 8.24196C11.5921 8.18438 11.4802 8.16223 11.3709 8.17951C11.2616 8.19678 11.162 8.25234 11.0901 8.3362C10.96 8.49244 10.8691 8.67728 10.8248 8.87546C10.7405 9.17752 10.6938 9.48874 10.6856 9.80215C10.6816 9.88015 10.6737 9.95791 10.6619 10.0351C10.6471 10.1341 10.6049 10.2271 10.5399 10.3034C10.4749 10.3797 10.3898 10.4364 10.2941 10.4671C10.1668 10.5202 10.0302 10.5477 9.89217 10.5482C9.54539 10.5482 9.19861 10.5482 8.84132 10.5482C8.22921 10.5412 7.6233 10.425 7.05225 10.2053C6.02106 9.8182 5.0984 9.18973 4.36207 8.37284C3.63138 7.57185 2.98031 6.70217 2.418 5.77602C1.52735 4.3372 0.737343 2.8389 0.0535866 1.29178C0.00895893 1.18973 -0.00824345 1.07786 0.00367123 0.967174C0.00619388 0.925792 0.0200053 0.88588 0.0436163 0.851743C0.0672272 0.817606 0.099742 0.790539 0.137655 0.773459C0.267196 0.708281 0.410248 0.674214 0.555368 0.673984H3.16673C3.32159 0.684436 3.47006 0.739476 3.59412 0.832419C3.71817 0.925362 3.81247 1.05221 3.86555 1.19754C4.09111 1.79172 4.36251 2.36761 4.67733 2.92003C5.01816 3.535 5.40179 4.12544 5.82538 4.68702C5.96908 4.89475 6.14668 5.07703 6.35081 5.22629C6.41582 5.28044 6.49566 5.31388 6.57998 5.32228C6.6643 5.33068 6.7492 5.31365 6.82369 5.27341C6.90514 5.22484 6.96871 5.1514 7.00496 5.06398C7.10038 4.84556 7.15896 4.61294 7.17835 4.37551C7.2357 3.82243 7.24712 3.26557 7.21251 2.71061C7.20611 2.37937 7.17184 2.04924 7.11005 1.72371C7.09429 1.64256 7.06539 1.56403 7.04962 1.48288C7.03067 1.40741 6.99548 1.33695 6.94649 1.27638C6.8975 1.21581 6.83588 1.16658 6.76589 1.13209C6.58557 1.0204 6.38115 0.953101 6.16954 0.935761C6.10911 0.935761 6.0881 0.904348 6.11437 0.851993C6.13686 0.799878 6.16696 0.751362 6.20369 0.708015C6.39582 0.499809 6.65524 0.365464 6.93666 0.328439C7.34437 0.258719 7.75783 0.228039 8.17141 0.236817C8.63115 0.236817 9.09353 0.236817 9.5559 0.265612C9.75654 0.278288 9.95542 0.310732 10.1496 0.36247C10.3043 0.393097 10.444 0.474944 10.5461 0.594709C10.6481 0.714473 10.7066 0.865114 10.7118 1.02215C10.7342 1.27455 10.7421 1.52801 10.7355 1.7813C10.7302 2.12423 10.7092 2.46977 10.6961 2.78914Z" fill="#ffffff"/>
</svg>
